<svg width="12" height="12" viewBox="0 0 12 12" fill="none" xmlns="http://www.w3.org/2000/svg">
<path fill-rule="evenodd" clip-rule="evenodd" d="M11.9615 8.27434C12.0415 8.08792 11.9944 7.8727 11.8433 7.73429C11.6923 7.59587 11.469 7.56331 11.283 7.65258C10.655 7.95401 9.94806 8.12357 9.19905 8.12357C6.59007 8.12357 4.47508 6.06214 4.47508 3.51925C4.47508 2.48979 4.82112 1.54051 5.4062 0.773984C5.52986 0.611967 5.5375 0.392194 5.42538 0.222389C5.31325 0.0525834 5.10485 -0.0316667 4.90233 0.0109341C2.1001 0.600395 1.30417e-07 3.02921 0 5.93723C-1.50165e-07 9.28561 2.78493 12 6.22031 12C8.80667 12 11.0232 10.4616 11.9615 8.27434Z" fill="white"/>
</svg>
