<svg width="249" height="143" viewBox="0 0 249 143" fill="none" xmlns="http://www.w3.org/2000/svg">
<path d="M98.3962 135.269H74.9686L46.8553 82.9136L27.9095 83.1173V135.269H7.33388V0H0V142.603H35.4471V90.2475H42.5772L70.4867 142.603H110.619L82.5061 90.0437L75.7834 92.6921L98.3962 135.269ZM49.9111 7.33388C79.4504 7.33388 96.1553 20.5756 96.1553 44.8181C96.1553 66.8198 82.9136 80.2652 59.8933 82.7099L54.3929 83.321L79.8578 130.38H88.2103L66.0049 89.0251C90.4512 84.747 103.489 69.8756 103.489 44.8181C103.489 36.4657 101.656 28.9281 98.1925 22.2054C90.0437 7.74132 73.3388 0 49.9111 0H13.8529V130.176H21.1868V7.33388H49.9111ZM48.2814 76.5983C76.1909 76.5983 89.4326 67.0235 89.4326 45.8367C89.4326 25.6686 75.5797 14.2603 53.3743 14.2603H27.7058V35.6508H51.1334C61.9305 35.6508 67.431 38.7066 67.431 44.8181C67.431 51.9483 60.7082 55.4115 47.0591 55.4115H35.2434V42.781H27.7058V62.7454H47.0591C65.19 62.7454 74.7648 56.4301 74.7648 44.8181C74.7648 41.1512 73.95 38.2991 72.1165 36.0582C68.6533 30.9653 61.7268 28.5206 51.1334 28.5206H35.2434V21.5942H53.3743C71.5053 21.5942 82.0987 30.3541 82.0987 45.8367C82.0987 61.9305 71.3016 69.4681 48.2814 69.4681H27.9095V76.5983H48.2814ZM225.313 96.1553C212.479 104.508 206.164 106.952 197.404 106.952C191.292 106.952 185.588 105.323 180.088 102.063C169.29 95.5442 161.957 83.7285 161.957 71.5053C161.957 64.9863 163.586 58.8748 166.846 53.3743C173.161 42.3735 185.18 35.8545 197.404 35.8545C205.145 35.8545 212.071 38.0954 217.979 42.3735C218.998 42.9847 220.22 43.7996 221.646 45.2256L224.702 47.4665L238.351 31.3727L236.11 29.1318C234.684 27.7058 232.851 26.4835 230.61 25.0574C221.035 17.7235 209.83 14.0566 197.404 14.0566C182.125 14.0566 168.068 19.9645 156.864 30.7616C146.066 42.1698 139.955 56.2264 139.955 71.5053C139.955 86.7842 146.066 101.248 156.864 112.045C167.661 122.842 182.125 128.954 197.404 128.954C208.404 128.954 218.59 125.898 228.165 119.787L224.091 113.675C215.738 119.176 206.978 121.824 197.404 121.824C184.162 121.824 171.531 116.527 161.957 106.952C152.382 97.3776 147.289 84.7471 147.289 71.5053C147.289 58.2636 152.382 45.8368 161.957 36.262C171.531 26.4835 184.162 21.3905 197.404 21.3905C207.386 21.3905 216.961 24.4463 226.535 30.7616L228.165 32.1876L223.683 37.2806C223.072 37.0768 222.665 36.8731 222.257 36.4657C214.72 31.3727 206.367 28.7244 197.404 28.7244C189.459 28.7244 182.328 30.5578 176.013 34.2248C163.179 41.7624 154.623 56.6339 154.623 71.5053C154.623 78.6355 156.66 85.7656 160.53 92.4884C168.476 106.138 182.94 114.49 197.404 114.49C206.978 114.49 214.72 111.638 226.332 104.304L237.74 121.213C222.868 130.991 211.257 135.066 197.404 135.066C185.995 135.066 175.402 132.214 165.623 126.509C145.863 115.101 133.64 94.3218 133.64 71.5053C133.64 60.0971 136.492 49.5037 142.196 39.5215C153.604 19.9645 174.587 7.74132 197.404 7.74132C213.497 7.74132 228.776 13.6492 240.388 24.4463L241.611 25.4649L243.24 27.0946L248.333 21.7979L245.481 18.9459C232.443 7.33388 215.331 0.611156 197.404 0.611156C184.569 0.611156 172.754 3.66694 161.957 9.98222C140.362 22.4091 126.306 46.2442 126.306 71.5053C126.306 83.9322 129.565 95.7479 136.084 106.749C148.919 128.75 171.939 142.603 197.404 142.603C213.497 142.603 226.943 137.51 245.074 125.083L247.926 123.25L228.573 94.1181L225.313 96.1553Z" fill="white"/>
</svg>
